<svg width="130" height="130" viewBox="0 0 130 130" fill="none" xmlns="http://www.w3.org/2000/svg">
<g clip-path="url(#clip0_4_91)">
<path d="M130 65C130 29.1015 100.899 0 65 0C29.1015 0 0 29.1015 0 65C0 100.899 29.1015 130 65 130C100.899 130 130 100.899 130 65Z" fill="#FAEB85"/>
<path d="M94 36H36V94H94V36Z" fill="#FFC20F"/>
<path d="M50.5 50.5H36V94H50.5V50.5Z" fill="#FBB017"/>
<path d="M79.5 79.5H50.5V94H79.5V79.5Z" fill="#FBB017"/>
<path d="M94 36H79.5V79.5H94V36Z" fill="#FFDD00"/>
<path d="M79.5 36H50.5V50.5H79.5V36Z" fill="#FFDD00"/>
</g>
<defs>
<clipPath id="clip0_4_91">
<rect width="130" height="130" fill="white"/>
</clipPath>
</defs>
</svg>
